<svg version="1.1" xmlns="http://www.w3.org/2000/svg" viewBox="0 0 601.6605104629076 480.13134470480486" width="601.6605104629076" height="480.13134470480486" filter="invert(93%) hue-rotate(180deg)">
  <!-- svg-source:excalidraw -->
  
  <defs>
    <style class="style-fonts">
      @font-face {
        font-family: "Virgil";
        src: url("https://excalidraw.com/Virgil.woff2");
      }
      @font-face {
        font-family: "Cascadia";
        src: url("https://excalidraw.com/Cascadia.woff2");
      }
      @font-face {
        font-family: "Assistant";
        src: url("https://excalidraw.com/Assistant-Regular.woff2");
      }
    </style>
    
  </defs>
  <rect x="0" y="0" width="601.6605104629076" height="480.13134470480486" fill="#f8f9fa"></rect><g stroke-linecap="round" transform="translate(51.299026516223535 210.13134470480486) rotate(0 50 100)"><path d="M0 0 C38.47 -1.44, 79.84 1.11, 100 0 M0 0 C36.19 -0.7, 71.62 0.02, 100 0 M100 0 C101.18 45.16, 99.76 94.44, 100 200 M100 0 C97.74 48.35, 99.04 95.89, 100 200 M100 200 C68.3 199.87, 34.17 200.54, 0 200 M100 200 C63.37 200.46, 27.11 200.03, 0 200 M0 200 C-2.51 126.42, -1.52 51.17, 0 0 M0 200 C-1.04 119.93, 0.33 40.39, 0 0" stroke="#1e1e1e" stroke-width="2" fill="none"></path></g><g transform="translate(88.24903872325478 297.63134470480486) rotate(0 13.04998779296875 12.5)"><text x="13.04998779296875" y="17.52" font-family="Virgil, Segoe UI Emoji" font-size="20px" fill="#1e1e1e" text-anchor="middle" style="white-space: pre;" direction="ltr" dominant-baseline="alphabetic">PC</text></g><g stroke-linecap="round" transform="translate(251.29902651622353 270.13134470480486) rotate(0 100 100)"><path d="M0 0 C46.66 2.99, 95.18 1.01, 200 0 M0 0 C42.3 1.52, 84.34 -0.27, 200 0 M200 0 C200.32 49.75, 201.54 97.93, 200 200 M200 0 C200.32 73.2, 200.95 146.8, 200 200 M200 200 C141.45 197.85, 80.53 199.43, 0 200 M200 200 C131.81 201.26, 64.43 201.07, 0 200 M0 200 C-0.67 159.56, -0.53 119, 0 0 M0 200 C1.2 152.05, 1.56 106.3, 0 0" stroke="#1e1e1e" stroke-width="2" fill="none"></path></g><g stroke-linecap="round"><g transform="translate(452.6265143749116 110.13134470480486) rotate(0 0 -30)"><path d="M0 0 C-1.49 -15.67, -2.03 -30.7, 0 -60 M0 0 C0.66 -13.42, 1.22 -25.89, 0 -60" stroke="#1e1e1e" stroke-width="2" fill="none"></path></g></g><mask></mask><g stroke-linecap="round"><g transform="translate(453.30457642882004 210.13134470480486) rotate(0 0 -30)"><path d="M0 0 C-1.16 -13.55, -0.61 -27.73, 0 -60 M0 0 C-0.21 -20.47, 0.07 -42.95, 0 -60" stroke="#1e1e1e" stroke-width="2" fill="none"></path></g></g><mask></mask><g stroke-linecap="round"><g transform="translate(452.6265143749116 150.13134470480486) rotate(0 10 -10)"><path d="M0 0 C3.64 -5.02, 7.77 -7.94, 20 -20 M0 0 C4.71 -5.1, 9.34 -9.34, 20 -20" stroke="#1e1e1e" stroke-width="2" fill="none"></path></g></g><mask></mask><g stroke-linecap="round"><g transform="translate(452.6265143749116 110.13134470480486) rotate(0 10 10)"><path d="M0 0 C7.98 7.09, 13.79 15.16, 20 20 M0 0 C3.94 3.81, 9.21 8.13, 20 20" stroke="#1e1e1e" stroke-width="2" fill="none"></path></g></g><mask></mask><g stroke-linecap="round"><g transform="translate(452.6265143749116 50.13134470480486) rotate(0 40 20)"><path d="M0 0 C32.16 16.75, 64.52 30.72, 80 40 M0 0 C19.09 9.36, 36 18.41, 80 40" stroke="#1e1e1e" stroke-width="2" fill="none"></path></g></g><mask></mask><g stroke-linecap="round"><g transform="translate(452.6265143749116 210.13134470480486) rotate(0 40 -20)"><path d="M0 0 C19.96 -8.04, 36.18 -19.47, 80 -40 M0 0 C16.3 -8.61, 34.92 -17.7, 80 -40" stroke="#1e1e1e" stroke-width="2" fill="none"></path></g></g><mask></mask><g stroke-linecap="round"><g transform="translate(532.6265143749116 170.13134470480486) rotate(0 0 -40)"><path d="M0 0 C-1.36 -28.05, 0.53 -60.87, 0 -80 M0 0 C0.07 -21.86, -0.42 -44.18, 0 -80" stroke="#1e1e1e" stroke-width="2" fill="none"></path></g></g><mask></mask><g stroke-linecap="round"><g transform="translate(151.29902651622353 310.13134470480486) rotate(0 50 0)"><path d="M0 0 C27.11 -1.25, 59.45 1.44, 100 0 M0 0 C36.31 -0.08, 73.92 0.89, 100 0" stroke="#1e1e1e" stroke-width="2" fill="none"></path></g></g><mask></mask><g transform="translate(271.29902651622353 290.13134470480486) rotate(0 30.944068908691406 20)"><text x="0" y="14.016" font-family="Virgil, Segoe UI Emoji" font-size="16px" fill="#1e1e1e" text-anchor="start" style="white-space: pre;" direction="ltr" dominant-baseline="alphabetic">Read</text><text x="0" y="34.016" font-family="Virgil, Segoe UI Emoji" font-size="16px" fill="#1e1e1e" text-anchor="start" style="white-space: pre;" direction="ltr" dominant-baseline="alphabetic">address</text></g><g transform="translate(271.29902651622353 410.13134470480486) rotate(0 54.24994659423828 25)"><text x="0" y="17.52" font-family="Virgil, Segoe UI Emoji" font-size="20px" fill="#1e1e1e" text-anchor="start" style="white-space: pre;" direction="ltr" dominant-baseline="alphabetic">Instruction</text><text x="0" y="42.519999999999996" font-family="Virgil, Segoe UI Emoji" font-size="20px" fill="#1e1e1e" text-anchor="start" style="white-space: pre;" direction="ltr" dominant-baseline="alphabetic">memory</text></g><g transform="translate(351.29902651622353 350.13134470480486) rotate(0 43.40009307861328 10)"><text x="0" y="14.016" font-family="Virgil, Segoe UI Emoji" font-size="16px" fill="#1e1e1e" text-anchor="start" style="white-space: pre;" direction="ltr" dominant-baseline="alphabetic">Instruction</text></g><g stroke-linecap="round"><g transform="translate(451.29902651622353 370.13134470480486) rotate(0 30 0)"><path d="M0 0 C15.64 -0.03, 27.14 1.58, 60 0 M0 0 C22.21 0.5, 44.26 -0.96, 60 0" stroke="#1e1e1e" stroke-width="2" fill="none"></path></g><g transform="translate(451.29902651622353 370.13134470480486) rotate(0 30 0)"><path d="M36.33 8.06 C43.26 5.77, 46.06 5.45, 60 0 M36.33 8.06 C44.87 5.78, 53.31 1.3, 60 0" stroke="#1e1e1e" stroke-width="2" fill="none"></path></g><g transform="translate(451.29902651622353 370.13134470480486) rotate(0 30 0)"><path d="M36.69 -9.04 C43.54 -7.24, 46.25 -3.46, 60 0 M36.69 -9.04 C45.25 -4.92, 53.56 -3, 60 0" stroke="#1e1e1e" stroke-width="2" fill="none"></path></g></g><mask></mask><g stroke-linecap="round"><g transform="translate(391.29902651622353 170.13134470480486) rotate(0 30 0)"><path d="M0 0 C19.17 1.12, 34.12 -2.09, 60 0 M0 0 C17.29 0.47, 34.53 -0.05, 60 0" stroke="#1e1e1e" stroke-width="2" fill="none"></path></g><g transform="translate(391.29902651622353 170.13134470480486) rotate(0 30 0)"><path d="M36.54 8.63 C44.75 7.34, 48.81 1.56, 60 0 M36.54 8.63 C43.1 6.51, 49.69 3.48, 60 0" stroke="#1e1e1e" stroke-width="2" fill="none"></path></g><g transform="translate(391.29902651622353 170.13134470480486) rotate(0 30 0)"><path d="M36.48 -8.47 C44.83 -4.66, 48.91 -5.34, 60 0 M36.48 -8.47 C43.22 -5.6, 49.84 -3.66, 60 0" stroke="#1e1e1e" stroke-width="2" fill="none"></path></g></g><mask></mask><g transform="translate(371.29902651622353 150.13134470480486) rotate(0 5.1200103759765625 10)"><text x="0" y="14.016" font-family="Virgil, Segoe UI Emoji" font-size="16px" fill="#1e1e1e" text-anchor="start" style="white-space: pre;" direction="ltr" dominant-baseline="alphabetic">4</text></g><g stroke-linecap="round"><g transform="translate(191.29902651622353 310.13134470480486) rotate(0 0 -110)"><path d="M0 0 C-0.67 -58.28, 0.48 -112.44, 0 -220 M0 0 C0.71 -44.69, -0.12 -88.53, 0 -220" stroke="#1e1e1e" stroke-width="2" fill="none"></path></g></g><mask></mask><g transform="translate(191.12606791813937 309.8591259317616) rotate(0 0.00004999999998744897 0.00005000000000165983)" stroke="none"><path fill="#1e1e1e" d="M 3.14,-3.14 Q 3.14,-3.14 3.55,-2.55 3.97,-1.97 4.18,-1.28 4.40,-0.59 4.38,0.11 4.36,0.83 4.11,1.51 3.86,2.18 3.41,2.74 2.96,3.30 2.36,3.69 1.75,4.08 1.05,4.25 0.36,4.42 -0.35,4.36 -1.07,4.31 -1.73,4.02 -2.39,3.74 -2.92,3.26 -3.46,2.78 -3.81,2.15 -4.16,1.53 -4.30,0.82 -4.43,0.11 -4.34,-0.59 -4.24,-1.30 -3.92,-1.94 -3.60,-2.59 -3.09,-3.09 -2.59,-3.60 -1.94,-3.92 -1.30,-4.24 -0.59,-4.34 0.12,-4.43 0.82,-4.30 1.53,-4.16 2.15,-3.81 2.78,-3.46 3.26,-2.92 3.74,-2.39 4.02,-1.73 4.31,-1.07 4.36,-0.35 4.42,0.36 4.25,1.05 4.07,1.75 3.69,2.36 3.30,2.96 2.74,3.41 2.18,3.86 1.51,4.11 0.83,4.36 0.11,4.38 -0.60,4.40 -1.28,4.18 -1.97,3.97 -2.55,3.55 -3.14,3.13 -3.14,3.14 -3.14,3.14 -3.47,2.71 -3.80,2.29 -4.02,1.80 -4.24,1.32 -4.33,0.79 -4.43,0.26 -4.40,-0.26 -4.36,-0.80 -4.20,-1.31 -4.04,-1.82 -3.77,-2.28 -3.49,-2.73 -3.11,-3.11 -2.73,-3.49 -2.28,-3.77 -1.82,-4.05 -1.31,-4.20 -0.80,-4.36 -0.26,-4.40 0.26,-4.43 0.79,-4.33 1.32,-4.24 1.80,-4.02 2.29,-3.80 2.71,-3.47 3.14,-3.14 3.14,-3.14 L 3.14,-3.14 Z"></path></g><g stroke-linecap="round"><g transform="translate(191.29902651622353 90.13134470480486) rotate(0 130 0)"><path d="M0 0 C86.3 0.53, 174.72 2.04, 260 0 M0 0 C81.01 -2.52, 163.47 -1.36, 260 0" stroke="#1e1e1e" stroke-width="2" fill="none"></path></g><g transform="translate(191.29902651622353 90.13134470480486) rotate(0 130 0)"><path d="M236.4 8.25 C242.68 4.36, 251.57 3.47, 260 0 M236.4 8.25 C242.9 4.5, 251.24 3.36, 260 0" stroke="#1e1e1e" stroke-width="2" fill="none"></path></g><g transform="translate(191.29902651622353 90.13134470480486) rotate(0 130 0)"><path d="M236.62 -8.85 C242.76 -6.98, 251.58 -2.1, 260 0 M236.62 -8.85 C243.13 -7.22, 251.39 -2.99, 260 0" stroke="#1e1e1e" stroke-width="2" fill="none"></path></g></g><mask></mask><g transform="translate(476.59210182518984 118.95313688641545) rotate(0 22.159988403320312 12.5)"><text x="0" y="17.52" font-family="Virgil, Segoe UI Emoji" font-size="20px" fill="#1e1e1e" text-anchor="start" style="white-space: pre;" direction="ltr" dominant-baseline="alphabetic">ADD</text></g><g stroke-linecap="round"><g transform="translate(531.2990265162235 130.13134470480486) rotate(0 30 0)"><path d="M0 0 C13.79 -1.21, 24.88 0.09, 60 0 M0 0 C15.86 -0.64, 34.2 0.08, 60 0" stroke="#1e1e1e" stroke-width="2" fill="none"></path></g></g><mask></mask><g stroke-linecap="round"><g transform="translate(591.2990265162235 130.13134470480486) rotate(0 0 -60)"><path d="M0 0 C0.97 -25.61, -0.35 -51.9, 0 -120 M0 0 C-1.5 -34.14, 0.07 -67.39, 0 -120" stroke="#1e1e1e" stroke-width="2" fill="none"></path></g></g><mask></mask><g stroke-linecap="round"><g transform="translate(591.2990265162235 10.13134470480486) rotate(0 -290 0)"><path d="M0 0 C-121.14 0.46, -240.68 -0.46, -580 0 M0 0 C-197.53 1.49, -395.18 0.9, -580 0" stroke="#1e1e1e" stroke-width="2" fill="none"></path></g></g><mask></mask><g stroke-linecap="round"><g transform="translate(11.299026516223535 310.13134470480486) rotate(0 0 -150)"><path d="M0 0 C1.22 -86.11, -0.56 -172.79, 0 -300 M0 0 C-1.47 -118.89, -1.97 -236.89, 0 -300" stroke="#1e1e1e" stroke-width="2" fill="none"></path></g></g><mask></mask><g stroke-linecap="round"><g transform="translate(11.299026516223535 310.13134470480486) rotate(0 20 0)"><path d="M0 0 C10.19 0.55, 20.36 -0.42, 40 0 M0 0 C9.55 0.06, 18.49 -0.27, 40 0" stroke="#1e1e1e" stroke-width="2" fill="none"></path></g><g transform="translate(11.299026516223535 310.13134470480486) rotate(0 20 0)"><path d="M21.16 6.72 C26.06 5.56, 30.93 2.92, 40 0 M21.16 6.72 C25.95 5.24, 30.1 3.39, 40 0" stroke="#1e1e1e" stroke-width="2" fill="none"></path></g><g transform="translate(11.299026516223535 310.13134470480486) rotate(0 20 0)"><path d="M21.25 -6.96 C26.11 -4.69, 30.97 -3.91, 40 0 M21.25 -6.96 C25.96 -5.34, 30.09 -4.1, 40 0" stroke="#1e1e1e" stroke-width="2" fill="none"></path></g></g><mask></mask></svg>